<svg xmlns="http://www.w3.org/2000/svg" viewBox="0 0 5120 5120" width="1024" height="1024"><g style="transform:none"><path d="M5114.42 2559.604c0 1410.744-1143.634 2554.377-2554.377 2554.377-1410.744 0-2554.378-1143.633-2554.378-2554.377S1149.3 5.226 2560.043 5.226c1410.743 0 2554.377 1143.634 2554.377 2554.378ZM4871.517 2559.753c0-1276.433-1034.753-2311.186-2311.186-2311.186-1276.433 0-2311.186 1034.753-2311.186 2311.186 0 1276.432 1034.753 2311.185 2311.186 2311.185 1276.433 0 2311.186-1034.753 2311.186-2311.185ZM2878 4855"/><path d="M2486 4616c-46-26-55-45-56-119 0-116 20-131 190-141 124-8 301-36 390-61 646-187 1121-670 1290-1310 42-157 53-170 155-170 68 0 77 2 102 27 39 40 42 114 9 245-162 636-619 1156-1226 1397-213 84-442 131-691 142-111 5-139 3-163-10z"/><path d="M2486 4145c-47-25-55-44-56-123 0-69 2-76 29-101 28-26 39-29 138-35 452-29 835-253 1079-631 119-184 185-385 208-634 13-137 16-147 41-168 22-19 38-23 99-23 67 0 74 2 101 30 36 38 42 93 26 256-15 152-34 243-76 372-155 465-522 832-987 987-217 72-529 108-602 70z"/><path d="M3578.551 2559.869c0 562.456-455.96 1018.416-1018.416 1018.416-562.456 0-1018.417-455.96-1018.417-1018.416 0-562.456 455.96-1018.416 1018.417-1018.416 562.456 0 1018.416 455.96 1018.416 1018.416ZM3293.897 2560.17c0-405.098-328.396-733.494-733.493-733.494-405.097 0-733.494 328.396-733.494 733.493 0 405.097 328.397 733.493 733.494 733.493 405.097 0 733.493-328.396 733.493-733.493ZM2765 3266"/><path d="M2888.513 2559.509c0 181.536-147.165 328.701-328.702 328.701s-328.701-147.165-328.701-328.701c0-181.537 147.164-328.702 328.701-328.702 181.537 0 328.702 147.165 328.702 328.702ZM2590 2585c24-26 24-26-3-53s-27-27-54 0-27 27-3 53c13 14 26 25 30 25s17-11 30-25zM4647.428 2582.781c0 86.36-70.008 156.368-156.368 156.368s-156.368-70.008-156.368-156.368 70.008-156.368 156.368-156.368 156.368 70.008 156.368 156.368ZM785.181 2536.887c0 86.914-70.457 157.371-157.371 157.371-86.914 0-157.372-70.457-157.372-157.371 0-86.915 70.458-157.372 157.372-157.372 86.914 0 157.371 70.457 157.371 157.372ZM995 2660c-36-37-42-102-26-262 39-391 185-703 455-974 268-267 573-411 958-453 184-20 246-14 287 30 17 19 21 35 21 97 0 67-2 76-28 101-25 26-35 28-137 35-542 34-997 359-1194 851-53 133-79 247-96 418-12 133-15 143-40 164-22 19-38 23-99 23-67 0-74-2-101-30z"/><path d="M595 2301c-68-28-81-112-40-271 131-514 459-960 907-1233 304-186 615-281 989-303 139-8 178-2 213 33 23 23 26 33 26 99 0 62-4 77-23 100-22 25-31 27-138 35-163 12-259 26-379 56-646 158-1164 671-1330 1318-39 151-60 175-148 174-31 0-66-4-77-8z"/></g><path fill="#0084FF" d="M4909.28 2559.803c0 1297.422-1051.769 2349.191-2349.192 2349.191-1297.422 0-2349.19-1051.769-2349.19-2349.191 0-1297.423 1051.768-2349.191 2349.19-2349.191 1297.423 0 2349.192 1051.768 2349.192 2349.19ZM2860 4574c809-118 1474-720 1676-1517 29-114 26-152-12-188-19-18-37-24-70-24-67 0-86 26-124 170-169 640-644 1123-1290 1310-89 25-266 53-390 61-157 9-190 29-190 111 1 44 15 66 56 88 34 19 167 14 344-11zm-152-455c482-52 892-296 1153-687 150-224 231-455 259-741 14-133 9-165-27-203-35-37-99-39-138-5-25 21-28 31-41 168-23 249-89 450-208 634-244 378-627 602-1079 631-99 6-110 9-138 35-24 22-29 35-29 71 1 49 14 71 56 93 35 18 63 18 192 4zm832.345-1558.944c0-541.34-438.843-980.182-980.182-980.182-541.339 0-980.181 438.842-980.181 980.182 0 541.339 438.842 980.181 980.181 980.181 541.34 0 980.182-438.842 980.182-980.181ZM4608.104 2584.41c0-64.867-52.585-117.452-117.453-117.452-64.867 0-117.452 52.585-117.452 117.452 0 64.868 52.585 117.453 117.452 117.453 64.868 0 117.453-52.585 117.453-117.453ZM745.676 2537.24c0-65.115-52.785-117.9-117.9-117.9-65.114 0-117.9 52.785-117.9 117.9 0 65.114 52.786 117.9 117.9 117.9 65.115 0 117.9-52.786 117.9-117.9ZM1165 2637c25-21 28-31 40-164 28-294 109-513 271-728 240-322 604-515 1019-541 102-7 112-9 137-35 59-58 25-159-58-175-44-8-231 11-349 36-288 59-550 204-771 424-270 271-416 583-455 974-13 129-8 166 27 204 36 37 100 39 139 5zm-436-384c25-23 35-49 61-148 166-647 684-1160 1330-1318 120-30 216-44 379-56 107-8 116-10 138-35 47-55 24-141-45-168-56-21-357 13-549 62-642 166-1159 636-1396 1270-49 131-90 297-83 336 15 77 109 109 165 57z" style="transform:none"/><g fill="#FFF" style="transform:none"><path d="M3331.638 2560.329c0 426.217-345.517 771.734-771.734 771.734-426.217 0-771.734-345.517-771.734-771.734 0-426.217 345.517-771.734 771.734-771.734 426.217 0 771.734 345.517 771.734 771.734ZM2850.258 2559.925c0-160.328-129.971-290.3-290.3-290.3-160.327 0-290.299 129.972-290.299 290.3s129.972 290.3 290.3 290.3 290.299-129.972 290.299-290.3ZM2686 2822"/><path d="M2640.391 2560.224c0 44.556-36.12 80.675-80.675 80.675s-80.675-36.12-80.675-80.675 36.12-80.675 80.675-80.675c44.556 0 80.675 36.12 80.675 80.675ZM2502 2617"/></g></svg>
